<?xml version="1.0" standalone="no"?>
<!DOCTYPE svg PUBLIC "-//W3C//DTD SVG 20010904//EN"
 "http://www.w3.org/TR/2001/REC-SVG-20010904/DTD/svg10.dtd">
<svg version="1.0" xmlns="http://www.w3.org/2000/svg"
 width="512.000000pt" height="512.000000pt" viewBox="0 0 512.000000 512.000000"
 preserveAspectRatio="xMidYMid meet">

<g transform="translate(0.000000,512.000000) scale(0.100000,-0.100000)"
fill="#000000" stroke="none">
<path d="M2315 5109 c-786 -75 -1501 -518 -1927 -1196 -487 -774 -516 -1777
-75 -2578 198 -360 493 -682 833 -908 326 -216 686 -350 1099 -409 117 -16
512 -17 630 0 631 88 1152 360 1577 821 349 378 573 862 650 1406 20 139 17
503 -6 660 -21 155 -80 393 -131 531 -45 123 -167 374 -231 474 -196 309 -470
589 -769 788 -133 89 -391 218 -540 271 -357 126 -742 175 -1110 140z m532
-264 c351 -46 698 -174 978 -360 511 -340 872 -872 989 -1457 40 -198 49 -313
43 -533 -9 -359 -75 -629 -232 -950 -322 -658 -948 -1127 -1675 -1255 -158
-28 -477 -38 -630 -21 -457 52 -890 235 -1231 520 -452 378 -736 896 -814
1484 -19 148 -19 417 -1 567 110 882 717 1625 1556 1903 152 51 287 82 435
102 142 18 439 18 582 0z"/>
<path d="M2108 3563 c-56 -35 -76 -132 -36 -180 7 -9 218 -196 468 -415 250
-219 455 -403 455 -408 0 -5 -205 -189 -455 -408 -250 -219 -461 -406 -469
-415 -8 -10 -16 -40 -19 -67 -4 -47 -3 -52 36 -90 34 -34 46 -40 83 -40 26 0
56 8 74 19 41 26 1034 897 1059 929 28 36 28 108 0 144 -25 32 -1018 903
-1059 929 -37 23 -101 24 -137 2z"/>
</g>
</svg>
