<?xml version="1.0" standalone="no"?>
<!DOCTYPE svg PUBLIC "-//W3C//DTD SVG 20010904//EN"
 "http://www.w3.org/TR/2001/REC-SVG-20010904/DTD/svg10.dtd">
<svg version="1.0" xmlns="http://www.w3.org/2000/svg"
 width="96.000000pt" height="96.000000pt" viewBox="0 0 96.000000 96.000000"
 preserveAspectRatio="xMidYMid meet">

<g transform="translate(0.000000,96.000000) scale(0.100000,-0.100000)"
fill="#000000" stroke="none">
<path d="M446 939 c-57 -9 -164 -59 -191 -89 -31 -34 -10 -32 43 4 79 53 140
69 237 64 64 -3 95 -10 141 -33 75 -37 148 -110 182 -183 24 -50 27 -69 27
-162 0 -94 -3 -111 -27 -161 -58 -117 -179 -202 -307 -216 l-64 -6 22 22 c17
17 22 32 19 59 -3 35 -1 36 35 44 209 43 287 297 136 447 -129 129 -341 93
-423 -71 -17 -34 -26 -68 -26 -99 l0 -48 -42 -3 c-33 -2 -45 -8 -55 -27 -11
-24 -12 -24 -18 13 -9 48 1 125 25 189 11 28 18 53 15 55 -21 21 -65 -114 -65
-199 0 -57 31 -173 51 -193 16 -18 10 -32 -46 -96 -68 -79 -83 -121 -61 -173
20 -48 67 -71 118 -56 38 10 60 28 125 103 l43 48 64 -17 c282 -76 557 165
507 446 -40 228 -242 375 -465 338z m160 -174 c90 -37 150 -137 142 -240 -6
-70 -24 -109 -70 -155 -36 -36 -101 -69 -135 -70 -18 0 -23 7 -28 38 -4 20 -9
44 -11 52 -2 10 11 20 44 30 107 34 126 164 33 227 -66 44 -150 19 -183 -54
-11 -24 -16 -52 -13 -63 6 -18 2 -20 -56 -20 l-61 0 4 55 c13 161 181 261 334
200z m-35 -138 c61 -41 62 -135 3 -174 -31 -20 -78 -14 -82 12 -5 26 -30 45
-59 45 -50 0 -16 107 41 130 35 15 62 11 97 -13z m-115 -145 c14 -9 56 -254
48 -275 -11 -30 -36 -27 -80 9 l-44 37 -42 -49 c-23 -27 -67 -75 -98 -107 -49
-49 -62 -57 -93 -57 -50 0 -77 28 -77 79 0 42 9 56 107 167 35 39 63 76 63 82
0 5 -16 24 -35 41 -35 31 -46 65 -22 74 19 8 261 7 273 -1z m-246 -117 c0 -31
-21 -23 -40 16 l-22 42 31 -22 c17 -12 31 -29 31 -36z m226 -193 c-3 -2 -21 1
-41 8 -29 9 -34 15 -25 26 10 11 17 10 41 -8 16 -12 27 -23 25 -26z"/>
<path d="M197 793 c-4 -3 -7 -13 -7 -21 0 -12 3 -12 15 -2 8 7 15 16 15 21 0
11 -14 12 -23 2z"/>
</g>
</svg>
