<svg id="svg" xmlns="http://www.w3.org/2000/svg" xmlns:xlink="http://www.w3.org/1999/xlink" width="400" height="381.55265180630283" viewBox="0, 0, 400,381.55265180630283"><g id="svgg"><path id="path0" d="M0.307 190.930 L 0.307 381.553 190.930 381.553 L 381.553 381.553 381.553 375.404 L 381.553 369.254 197.079 369.254 L 12.606 369.254 12.606 184.781 L 12.606 0.307 6.457 0.307 L 0.307 0.307 0.307 190.930 M65.334 0.818 C 59.431 3.930,61.355 12.606,67.948 12.606 C 71.423 12.606,74.097 9.932,74.097 6.457 C 74.097 2.014,69.130 -1.183,65.334 0.818 M126.826 0.818 C 120.923 3.930,122.846 12.606,129.439 12.606 C 132.914 12.606,135.588 9.932,135.588 6.457 C 135.588 2.014,130.621 -1.183,126.826 0.818 M188.317 0.818 C 182.414 3.930,184.337 12.606,190.930 12.606 C 194.405 12.606,197.079 9.932,197.079 6.457 C 197.079 2.014,192.112 -1.183,188.317 0.818 M249.808 0.818 C 243.905 3.930,245.828 12.606,252.421 12.606 C 255.896 12.606,258.570 9.932,258.570 6.457 C 258.570 2.014,253.603 -1.183,249.808 0.818 M311.299 0.818 C 305.396 3.930,307.319 12.606,313.912 12.606 C 317.388 12.606,320.061 9.932,320.061 6.457 C 320.061 2.014,315.094 -1.183,311.299 0.818 M372.790 0.818 C 366.887 3.930,368.811 12.606,375.404 12.606 C 378.879 12.606,381.553 9.932,381.553 6.457 C 381.553 2.014,376.586 -1.183,372.790 0.818 M370.815 43.667 C 355.021 46.986,346.213 64.172,353.120 78.193 L 354.201 80.387 309.531 125.058 L 264.861 169.728 262.671 168.649 C 256.438 165.578,248.405 165.578,242.172 168.649 L 239.982 169.728 226.057 155.803 L 212.133 141.878 213.214 139.684 C 221.064 123.748,209.018 104.996,190.930 104.996 C 172.842 104.996,160.796 123.748,168.646 139.684 L 169.728 141.878 125.058 186.549 L 80.387 231.219 78.193 230.138 C 62.257 222.287,43.505 234.333,43.505 252.421 C 43.505 273.252,67.343 284.599,83.543 271.481 C 92.157 264.505,95.030 251.917,90.231 242.176 L 89.150 239.982 133.820 195.311 L 178.490 150.641 180.681 151.720 C 186.914 154.791,194.946 154.791,201.179 151.720 L 203.369 150.641 217.294 164.566 L 231.219 178.491 230.138 180.685 C 219.941 201.383,243.126 223.461,263.797 212.736 C 275.418 206.706,280.364 192.173,274.705 180.685 L 273.624 178.490 318.294 133.820 L 362.964 89.150 365.159 90.231 C 385.857 100.428,407.934 77.243,397.209 56.572 C 392.336 47.180,380.841 41.560,370.815 43.667 M377.568 55.959 C 384.118 57.201,388.561 63.441,387.438 69.818 C 385.028 83.500,365.779 83.500,363.369 69.818 C 361.939 61.702,369.408 54.412,377.568 55.959 M65.334 62.309 C 59.431 65.421,61.355 74.097,67.948 74.097 C 71.423 74.097,74.097 71.423,74.097 67.948 C 74.097 63.505,69.130 60.309,65.334 62.309 M126.826 62.309 C 120.923 65.421,122.846 74.097,129.439 74.097 C 132.914 74.097,135.588 71.423,135.588 67.948 C 135.588 63.505,130.621 60.309,126.826 62.309 M188.317 62.309 C 182.414 65.421,184.337 74.097,190.930 74.097 C 197.456 74.097,199.468 65.376,193.633 62.384 C 192.232 61.665,189.608 61.629,188.317 62.309 M249.808 62.309 C 243.905 65.421,245.828 74.097,252.421 74.097 C 258.947 74.097,260.959 65.376,255.124 62.384 C 253.723 61.665,251.099 61.629,249.808 62.309 M311.299 62.309 C 305.396 65.421,307.319 74.097,313.912 74.097 C 317.388 74.097,320.061 71.423,320.061 67.948 C 320.061 63.505,315.094 60.309,311.299 62.309 M193.095 117.450 C 199.644 118.693,204.088 124.932,202.965 131.309 C 200.554 144.992,181.306 144.992,178.896 131.309 C 177.466 123.193,184.935 115.903,193.095 117.450 M65.334 123.801 C 59.431 126.913,61.355 135.588,67.948 135.588 C 71.423 135.588,74.097 132.914,74.097 129.439 C 74.097 124.996,69.130 121.800,65.334 123.801 M126.826 123.801 C 120.923 126.913,122.846 135.588,129.439 135.588 C 132.914 135.588,135.588 132.914,135.588 129.439 C 135.588 124.996,130.621 121.800,126.826 123.801 M249.808 123.801 C 243.905 126.913,245.828 135.588,252.421 135.588 C 257.835 135.588,260.589 129.218,256.920 125.181 C 255.294 123.392,251.851 122.723,249.808 123.801 M372.790 123.801 C 366.887 126.913,368.811 135.588,375.404 135.588 C 378.879 135.588,381.553 132.914,381.553 129.439 C 381.553 124.996,376.586 121.800,372.790 123.801 M254.586 178.942 C 261.135 180.184,265.579 186.423,264.456 192.800 C 262.046 206.483,242.797 206.483,240.387 192.800 C 238.957 184.684,246.426 177.394,254.586 178.942 M65.334 185.292 C 59.431 188.404,61.355 197.079,67.948 197.079 C 74.474 197.079,76.486 188.359,70.650 185.366 C 69.249 184.648,66.626 184.611,65.334 185.292 M188.317 185.292 C 182.414 188.404,184.337 197.079,190.930 197.079 C 194.405 197.079,197.079 194.405,197.079 190.930 C 197.079 186.487,192.112 183.291,188.317 185.292 M311.299 185.292 C 305.396 188.404,307.319 197.079,313.912 197.079 C 317.388 197.079,320.061 194.405,320.061 190.930 C 320.061 186.487,315.094 183.291,311.299 185.292 M372.790 185.292 C 366.887 188.404,368.811 197.079,375.404 197.079 C 378.879 197.079,381.553 194.405,381.553 190.930 C 381.553 186.487,376.586 183.291,372.790 185.292 M70.112 240.433 C 79.788 242.268,83.501 254.115,76.571 261.045 C 69.534 268.082,57.659 264.200,55.913 254.291 C 54.484 246.175,61.953 238.885,70.112 240.433 M126.826 246.783 C 120.923 249.895,122.846 258.570,129.439 258.570 C 132.914 258.570,135.588 255.896,135.588 252.421 C 135.588 247.978,130.621 244.782,126.826 246.783 M188.317 246.783 C 182.414 249.895,184.337 258.570,190.930 258.570 C 194.405 258.570,197.079 255.896,197.079 252.421 C 197.079 247.978,192.112 244.782,188.317 246.783 M249.808 246.783 C 243.905 249.895,245.828 258.570,252.421 258.570 C 255.896 258.570,258.570 255.896,258.570 252.421 C 258.570 247.978,253.603 244.782,249.808 246.783 M311.299 246.783 C 305.396 249.895,307.319 258.570,313.912 258.570 C 317.388 258.570,320.061 255.896,320.061 252.421 C 320.061 247.978,315.094 244.782,311.299 246.783 M372.790 246.783 C 366.887 249.895,368.811 258.570,375.404 258.570 C 378.879 258.570,381.553 255.896,381.553 252.421 C 381.553 247.978,376.586 244.782,372.790 246.783 M65.334 308.274 C 59.431 311.386,61.355 320.061,67.948 320.061 C 74.474 320.061,76.486 311.341,70.650 308.348 C 69.249 307.630,66.626 307.593,65.334 308.274 M126.826 308.274 C 120.923 311.386,122.846 320.061,129.439 320.061 C 132.914 320.061,135.588 317.388,135.588 313.912 C 135.588 309.469,130.621 306.273,126.826 308.274 M188.317 308.274 C 182.414 311.386,184.337 320.061,190.930 320.061 C 194.405 320.061,197.079 317.388,197.079 313.912 C 197.079 309.469,192.112 306.273,188.317 308.274 M249.808 308.274 C 243.905 311.386,245.828 320.061,252.421 320.061 C 255.896 320.061,258.570 317.388,258.570 313.912 C 258.570 309.469,253.603 306.273,249.808 308.274 M311.299 308.274 C 305.396 311.386,307.319 320.061,313.912 320.061 C 317.388 320.061,320.061 317.388,320.061 313.912 C 320.061 309.469,315.094 306.273,311.299 308.274 M372.790 308.274 C 366.887 311.386,368.811 320.061,375.404 320.061 C 378.879 320.061,381.553 317.388,381.553 313.912 C 381.553 309.469,376.586 306.273,372.790 308.274 " stroke="none" fill="#000000" fill-rule="evenodd"></path></g></svg>