<svg width="113" height="113" viewBox="0 0 113 113" fill="none" xmlns="http://www.w3.org/2000/svg">
<path d="M9.35693 56.1426C9.35693 52.0957 9.87156 48.1752 10.8353 44.4278C13.42 44.5636 15.9919 43.9821 18.2667 42.7476C20.5416 41.513 22.4307 39.6735 23.7254 37.4323C25.02 35.1911 25.6698 32.6356 25.6027 30.0482C25.5357 27.4608 24.7545 24.9424 23.3455 22.7713C29.0014 17.2066 35.981 13.1734 43.6265 11.0518C44.8008 13.3604 46.5909 15.2992 48.7989 16.6533C51.0069 18.0074 53.5465 18.7242 56.1367 18.7242C58.7268 18.7242 61.2664 18.0074 63.4744 16.6533C65.6824 15.2992 67.4726 13.3604 68.6468 11.0518C76.2924 13.1734 83.2719 17.2066 88.9279 22.7713C87.5173 24.9428 86.7349 27.4622 86.6674 30.0507C86.5998 32.6393 87.2497 35.1961 88.5451 37.4382C89.8405 39.6804 91.7309 41.5204 94.0072 42.7548C96.2835 43.9892 98.8569 44.5698 101.443 44.4324C102.406 48.1752 102.921 52.0957 102.921 56.1426C102.921 60.1894 102.406 64.11 101.443 67.8574C98.8576 67.7206 96.2851 68.3014 94.0096 69.5356C91.734 70.7698 89.8442 72.6093 88.5489 74.8506C87.2537 77.092 86.6036 79.6479 86.6704 82.2357C86.7373 84.8235 87.5186 87.3424 88.9279 89.5139C83.2719 95.0786 76.2924 99.1117 68.6468 101.233C67.4726 98.9247 65.6824 96.986 63.4744 95.6318C61.2664 94.2777 58.7268 93.561 56.1367 93.561C53.5465 93.561 51.0069 94.2777 48.7989 95.6318C46.5909 96.986 44.8008 98.9247 43.6265 101.233C35.981 99.1117 29.0014 95.0786 23.3455 89.5139C24.7561 87.3424 25.5384 84.823 25.6059 82.2344C25.6735 79.6459 25.0236 77.0891 23.7282 74.8469C22.4328 72.6048 20.5424 70.7647 18.2661 69.5303C15.9898 68.2959 13.4164 67.7153 10.8306 67.8527C9.87156 64.1146 9.35693 60.1941 9.35693 56.1426ZM31.8322 70.1779C34.7796 75.2821 35.6217 81.1535 34.4708 86.6647C36.3796 88.0215 38.4101 89.1958 40.5387 90.1736C44.8273 86.3318 50.3837 84.2092 56.1413 84.2132C62.0362 84.2132 67.5474 86.4168 71.744 90.1736C73.8726 89.1958 75.9031 88.0215 77.8119 86.6647C76.6303 81.0317 77.5699 75.1608 80.4505 70.1779C83.326 65.1924 87.9408 61.444 93.4098 59.6514C93.6262 57.3172 93.6262 54.968 93.4098 52.6337C87.9391 50.8422 83.3225 47.0936 80.4459 42.1073C77.5652 37.1244 76.6256 31.2534 77.8072 25.6204C75.8989 24.2633 73.8674 23.0885 71.7393 22.1116C67.4519 25.9523 61.8974 28.0748 56.1413 28.0719C50.3837 28.0759 44.8273 25.9534 40.5387 22.1116C38.4107 23.0886 36.3791 24.2633 34.4708 25.6204C35.6524 31.2534 34.7128 37.1244 31.8322 42.1073C28.9567 47.0927 24.3419 50.8412 18.8729 52.6337C18.6565 54.968 18.6565 57.3172 18.8729 59.6514C24.3436 61.443 28.9602 65.1915 31.8368 70.1779H31.8322ZM56.1413 70.1779C52.4189 70.1779 48.849 68.6992 46.2169 66.0671C43.5847 63.4349 42.106 59.865 42.106 56.1426C42.106 52.4202 43.5847 48.8502 46.2169 46.2181C48.849 43.586 52.4189 42.1073 56.1413 42.1073C59.8637 42.1073 63.4337 43.586 66.0658 46.2181C68.698 48.8502 70.1767 52.4202 70.1767 56.1426C70.1767 59.865 68.698 63.4349 66.0658 66.0671C63.4337 68.6992 59.8637 70.1779 56.1413 70.1779ZM56.1413 60.821C57.3821 60.821 58.5721 60.3281 59.4495 59.4507C60.3269 58.5734 60.8198 57.3834 60.8198 56.1426C60.8198 54.9018 60.3269 53.7118 59.4495 52.8344C58.5721 51.957 57.3821 51.4641 56.1413 51.4641C54.9005 51.4641 53.7106 51.957 52.8332 52.8344C51.9558 53.7118 51.4629 54.9018 51.4629 56.1426C51.4629 57.3834 51.9558 58.5734 52.8332 59.4507C53.7106 60.3281 54.9005 60.821 56.1413 60.821V60.821Z" fill="black"/>
</svg>
