<svg width="98" height="98" viewBox="0 0 98 98" fill="none" xmlns="http://www.w3.org/2000/svg">
<path d="M59.4059 32.5527H85.4469C87.6051 32.5527 89.675 33.4101 91.2012 34.9362C92.7273 36.4624 93.5847 38.5323 93.5847 40.6905V49.2515C93.5858 50.315 93.3784 51.3683 92.9743 52.352L80.3811 82.9298C80.0739 83.6753 79.5521 84.3127 78.882 84.7611C78.2119 85.2096 77.4237 85.4488 76.6173 85.4485H8.13775C7.05861 85.4485 6.02367 85.0198 5.2606 84.2567C4.49753 83.4936 4.06885 82.4587 4.06885 81.3796V40.6905C4.06885 39.6114 4.49753 38.5765 5.2606 37.8134C6.02367 37.0503 7.05861 36.6216 8.13775 36.6216H22.3057C22.9571 36.6218 23.599 36.4656 24.1775 36.1661C24.756 35.8666 25.2541 35.4325 25.63 34.9005L47.8177 3.4601C48.0982 3.06262 48.5118 2.77881 48.9836 2.66012C49.4553 2.54142 49.954 2.59572 50.3892 2.81315L57.7702 6.50364C59.8474 7.54187 61.5068 9.25956 62.4728 11.3713C63.4387 13.4831 63.653 15.8618 63.0801 18.1122L59.4059 32.5527ZM28.4823 43.0831V77.3107H73.8912L85.4469 49.2515V40.6905H59.4059C58.1665 40.6904 56.9435 40.4071 55.8303 39.8623C54.717 39.3176 53.7429 38.5258 52.9822 37.5473C52.2216 36.5688 51.6944 35.4294 51.4411 34.2162C51.1877 33.003 51.2149 31.7479 51.5204 30.5468L55.1946 16.1103C55.3096 15.66 55.2669 15.1839 55.0737 14.7612C54.8805 14.3385 54.5484 13.9947 54.1326 13.787L51.4431 12.4442L32.2785 39.5919C31.2613 41.0323 29.9593 42.2123 28.4823 43.0831V43.0831ZM20.3444 44.7594H12.2066V77.3107H20.3444V44.7594Z" fill="black"/>
</svg>
