<svg width="29" height="30" viewBox="0 0 29 30" fill="none" xmlns="http://www.w3.org/2000/svg">
<path d="M14.6509 26.9576C8.04667 26.9576 2.69324 21.6042 2.69324 15C2.69324 8.39579 8.04667 3.04236 14.6509 3.04236C21.2551 3.04236 26.6085 8.39579 26.6085 15C26.6085 21.6042 21.2551 26.9576 14.6509 26.9576ZM14.6509 24.5661C17.188 24.5661 19.6211 23.5582 21.4151 21.7642C23.2091 19.9703 24.217 17.5371 24.217 15C24.217 12.4629 23.2091 10.0297 21.4151 8.23573C19.6211 6.44174 17.188 5.43388 14.6509 5.43388C12.1138 5.43388 9.6806 6.44174 7.88661 8.23573C6.09262 10.0297 5.08476 12.4629 5.08476 15C5.08476 17.5371 6.09262 19.9703 7.88661 21.7642C9.6806 23.5582 12.1138 24.5661 14.6509 24.5661ZM8.67205 15H11.0636C11.0636 15.9514 11.4415 16.8638 12.1143 17.5366C12.787 18.2093 13.6995 18.5873 14.6509 18.5873C15.6023 18.5873 16.5147 18.2093 17.1875 17.5366C17.8602 16.8638 18.2382 15.9514 18.2382 15H20.6297C20.6297 16.5857 19.9998 18.1064 18.8785 19.2277C17.7573 20.3489 16.2366 20.9788 14.6509 20.9788C13.0652 20.9788 11.5445 20.3489 10.4232 19.2277C9.30196 18.1064 8.67205 16.5857 8.67205 15Z" fill="black"/>
</svg>
