<svg width="48" height="48" viewBox="0 0 48 48" fill="none" xmlns="http://www.w3.org/2000/svg">
<path d="M24 44C12.954 44 3.99998 35.046 3.99998 24C3.99998 12.954 12.954 4 24 4C35.046 4 44 12.954 44 24C44 35.046 35.046 44 24 44ZM24 40C28.2434 40 32.3131 38.3143 35.3137 35.3137C38.3143 32.3131 40 28.2435 40 24C40 19.7565 38.3143 15.6869 35.3137 12.6863C32.3131 9.68571 28.2434 8 24 8C19.7565 8 15.6869 9.68571 12.6863 12.6863C9.68569 15.6869 7.99998 19.7565 7.99998 24C7.99998 28.2435 9.68569 32.3131 12.6863 35.3137C15.6869 38.3143 19.7565 40 24 40V40ZM22.006 32L13.52 23.514L16.348 20.686L22.006 26.344L33.318 15.03L36.148 17.858L22.006 32Z" fill="black"/>
</svg>
