<svg width="113" height="113" viewBox="0 0 113 113" fill="none" xmlns="http://www.w3.org/2000/svg">
<path d="M25.5584 20.7391C34.0477 13.383 44.9083 9.34082 56.1413 9.35649C81.9804 9.35649 102.926 30.3019 102.926 56.1409C102.926 66.1341 99.7912 75.3974 94.4578 82.9952L79.5336 56.1409H93.5689C93.5695 48.8033 91.4133 41.6275 87.3684 35.5055C83.3235 29.3835 77.5683 24.5856 70.8185 21.7082C64.0686 18.8308 56.6219 18.0009 49.4042 19.3217C42.1865 20.6425 35.5162 24.0557 30.2228 29.1369L25.5584 20.7391ZM86.7243 91.5427C78.235 98.8988 67.3743 102.941 56.1413 102.925C30.3023 102.925 9.35693 81.9799 9.35693 56.1409C9.35693 46.1478 12.4915 36.8844 17.8249 29.2867L32.7491 56.1409H18.7138C18.7132 63.4785 20.8694 70.6543 24.9143 76.7763C28.9592 82.8983 34.7144 87.6963 41.4642 90.5737C48.2141 93.4511 55.6608 94.281 62.8785 92.9602C70.0962 91.6394 76.7665 88.2261 82.0599 83.1449L86.7243 91.5427Z" fill="white"/>
</svg>
