<svg width="119" height="119" viewBox="0 0 119 119" fill="none" xmlns="http://www.w3.org/2000/svg">
<path d="M108.535 74.0015H93.7351V14.8003H108.535C109.844 14.8003 111.099 15.3201 112.024 16.2453C112.949 17.1705 113.469 18.4253 113.469 19.7337V69.068C113.469 70.3765 112.949 71.6313 112.024 72.5565C111.099 73.4817 109.844 74.0015 108.535 74.0015ZM82.4228 80.3804L50.8488 111.954C50.4292 112.375 49.8717 112.63 49.2789 112.673C48.6861 112.716 48.0978 112.543 47.6223 112.186L43.4141 109.029C42.2454 108.151 41.3626 106.948 40.8771 105.569C40.3916 104.191 40.325 102.7 40.6859 101.283L46.3742 78.9349H14.8002C12.1834 78.9349 9.67369 77.8954 7.82329 76.045C5.9729 74.1946 4.93335 71.6849 4.93335 69.068V58.6881C4.93202 57.3987 5.18344 56.1215 5.67337 54.9288L20.9473 17.859C21.3187 16.955 21.9502 16.1816 22.7618 15.6371C23.5734 15.0925 24.5284 14.8013 25.5058 14.8003H78.9348C80.2432 14.8003 81.4981 15.3201 82.4233 16.2453C83.3485 17.1705 83.8683 18.4253 83.8683 19.7337V76.8925C83.868 78.2008 83.348 79.4554 82.4228 80.3804V80.3804Z" fill="black"/>
</svg>
