<svg width="98" height="98" viewBox="0 0 98 98" fill="none" xmlns="http://www.w3.org/2000/svg">
<path d="M38.2476 65.1027H12.2067C10.0484 65.1027 7.97849 64.2454 6.45236 62.7192C4.92623 61.1931 4.06885 59.1232 4.06885 56.9649V48.404C4.06775 47.3405 4.27511 46.2872 4.67919 45.3035L17.2765 14.7297C17.5828 13.9841 18.1037 13.3463 18.773 12.8972C19.4424 12.448 20.2301 12.2078 21.0362 12.207H89.5158C90.5949 12.207 91.6299 12.6357 92.3929 13.3988C93.156 14.1619 93.5847 15.1968 93.5847 16.2759V56.9649C93.5847 58.0441 93.156 59.079 92.3929 59.8421C91.6299 60.6051 90.5949 61.0338 89.5158 61.0338H75.3479C74.6964 61.0337 74.0545 61.1899 73.476 61.4894C72.8975 61.7889 72.3994 62.2229 72.0236 62.755L49.8358 94.1913C49.5554 94.5888 49.1417 94.8726 48.67 94.9913C48.1982 95.11 47.6995 95.0557 47.2643 94.8383L39.8833 91.1437C37.8061 90.1055 36.1467 88.3878 35.1808 86.276C34.2148 84.1642 34.0005 81.7855 34.5734 79.5351L38.2476 65.1027ZM69.1713 54.5724V20.3448H23.7623L12.2067 48.404V56.9649H38.2476C39.487 56.9651 40.71 57.2484 41.8232 57.7931C42.9365 58.3379 43.9106 59.1297 44.6713 60.1082C45.432 61.0867 45.9591 62.226 46.2124 63.4393C46.4658 64.6525 46.4387 65.9076 46.1331 67.1087L42.4589 81.5452C42.3439 81.9955 42.3866 82.4716 42.5798 82.8943C42.773 83.317 43.1051 83.6608 43.5209 83.8685L46.2105 85.2112L65.375 58.0635C66.3922 56.6231 67.6943 55.4432 69.1713 54.5724V54.5724ZM77.3091 52.896H85.4469V20.3448H77.3091V52.896Z" fill="black"/>
</svg>
