<svg width="119" height="119" viewBox="0 0 119 119" fill="none" xmlns="http://www.w3.org/2000/svg">
<path d="M9.86678 44.4015H24.6671V103.603H9.86678C8.55835 103.603 7.30352 103.083 6.37832 102.158C5.45312 101.233 4.93335 99.9777 4.93335 98.6693V49.3349C4.93335 48.0265 5.45312 46.7717 6.37832 45.8465C7.30352 44.9213 8.55835 44.4015 9.86678 44.4015V44.4015ZM35.9794 38.0226L67.5534 6.44863C67.973 6.02778 68.5305 5.77258 69.1233 5.72998C69.7161 5.68738 70.3043 5.86023 70.7799 6.21675L74.9881 9.37415C76.1568 10.2515 77.0396 11.4553 77.5251 12.8337C78.0106 14.2122 78.0771 15.7035 77.7163 17.1196L72.028 39.4681H103.602C106.219 39.4681 108.729 40.5076 110.579 42.358C112.429 44.2084 113.469 46.7181 113.469 49.3349V59.7149C113.47 61.0043 113.219 62.2815 112.729 63.4742L97.4598 100.549C97.0874 101.453 96.4547 102.226 95.6423 102.769C94.8298 103.313 93.8741 103.603 92.8964 103.603H39.4674C38.1589 103.603 36.9041 103.083 35.9789 102.158C35.0537 101.233 34.5339 99.9777 34.5339 98.6693V41.5105C34.5342 40.2022 35.0542 38.9476 35.9794 38.0226V38.0226Z" fill="black"/>
</svg>
