<svg width="30" height="30" viewBox="0 0 114 114" fill="none" xmlns="http://www.w3.org/2000/svg">
<path d="M87.3293 92.1815C78.7808 99.5889 67.8443 103.659 56.533 103.644C30.5136 103.644 9.42212 82.552 9.42212 56.5327C9.42212 30.5134 30.5136 9.42188 56.533 9.42188C82.5523 9.42188 103.644 30.5134 103.644 56.5327C103.644 66.5956 100.487 75.9235 95.1168 83.5743L80.0884 56.5327H94.2216C94.2209 47.8465 91.2198 39.4271 85.726 32.6988C80.2322 25.9706 72.583 21.3465 64.0723 19.6089C55.5616 17.8713 46.7119 19.1268 39.0203 23.163C31.3288 27.1992 25.2675 33.7683 21.8618 41.7591C18.4562 49.7499 17.9153 58.6718 20.3306 67.0155C22.7459 75.3592 27.9692 82.6125 35.1168 87.5484C42.2644 92.4843 50.8975 94.7998 59.5558 94.1031C68.2141 93.4064 76.366 89.7403 82.6324 83.7251L87.3293 92.1815Z" fill="white"/>
</svg>
